<svg width="320" height="320" viewBox="0 0 320 320" fill="none" xmlns="http://www.w3.org/2000/svg">
  <rect width="320" height="320" rx="32" fill="#FFFFFF"/>
  <rect x="12" y="12" width="296" height="296" rx="24" fill="#F8FAFC" stroke="#E7E5E4" stroke-width="8"/>
  <rect x="36" y="36" width="84" height="84" rx="16" fill="#0F172A"/>
  <rect x="52" y="52" width="52" height="52" rx="10" fill="#FFFFFF"/>
  <rect x="64" y="64" width="28" height="28" rx="6" fill="#059669"/>
  <rect x="200" y="36" width="84" height="84" rx="16" fill="#0F172A"/>
  <rect x="216" y="52" width="52" height="52" rx="10" fill="#FFFFFF"/>
  <rect x="228" y="64" width="28" height="28" rx="6" fill="#059669"/>
  <rect x="36" y="200" width="84" height="84" rx="16" fill="#0F172A"/>
  <rect x="52" y="216" width="52" height="52" rx="10" fill="#FFFFFF"/>
  <rect x="64" y="228" width="28" height="28" rx="6" fill="#059669"/>
  <rect x="144" y="36" width="16" height="16" rx="4" fill="#0F172A"/>
  <rect x="168" y="36" width="16" height="16" rx="4" fill="#059669"/>
  <rect x="144" y="60" width="16" height="16" rx="4" fill="#CBD5E1"/>
  <rect x="168" y="60" width="16" height="16" rx="4" fill="#0F172A"/>
  <rect x="144" y="84" width="16" height="16" rx="4" fill="#059669"/>
  <rect x="168" y="84" width="16" height="16" rx="4" fill="#CBD5E1"/>
  <rect x="144" y="108" width="16" height="16" rx="4" fill="#0F172A"/>
  <rect x="168" y="108" width="16" height="16" rx="4" fill="#059669"/>
  <rect x="132" y="144" width="16" height="16" rx="4" fill="#0F172A"/>
  <rect x="156" y="144" width="16" height="16" rx="4" fill="#059669"/>
  <rect x="180" y="144" width="16" height="16" rx="4" fill="#0F172A"/>
  <rect x="204" y="144" width="16" height="16" rx="4" fill="#CBD5E1"/>
  <rect x="228" y="144" width="16" height="16" rx="4" fill="#0F172A"/>
  <rect x="252" y="144" width="16" height="16" rx="4" fill="#059669"/>
  <rect x="132" y="168" width="16" height="16" rx="4" fill="#CBD5E1"/>
  <rect x="156" y="168" width="16" height="16" rx="4" fill="#0F172A"/>
  <rect x="180" y="168" width="16" height="16" rx="4" fill="#059669"/>
  <rect x="204" y="168" width="16" height="16" rx="4" fill="#0F172A"/>
  <rect x="228" y="168" width="16" height="16" rx="4" fill="#CBD5E1"/>
  <rect x="252" y="168" width="16" height="16" rx="4" fill="#0F172A"/>
  <rect x="132" y="192" width="16" height="16" rx="4" fill="#059669"/>
  <rect x="156" y="192" width="16" height="16" rx="4" fill="#CBD5E1"/>
  <rect x="180" y="192" width="16" height="16" rx="4" fill="#0F172A"/>
  <rect x="204" y="192" width="16" height="16" rx="4" fill="#059669"/>
  <rect x="228" y="192" width="16" height="16" rx="4" fill="#0F172A"/>
  <rect x="252" y="192" width="16" height="16" rx="4" fill="#CBD5E1"/>
  <rect x="132" y="216" width="16" height="16" rx="4" fill="#0F172A"/>
  <rect x="156" y="216" width="16" height="16" rx="4" fill="#059669"/>
  <rect x="180" y="216" width="16" height="16" rx="4" fill="#CBD5E1"/>
  <rect x="204" y="216" width="16" height="16" rx="4" fill="#0F172A"/>
  <rect x="228" y="216" width="16" height="16" rx="4" fill="#059669"/>
  <rect x="252" y="216" width="16" height="16" rx="4" fill="#0F172A"/>
  <rect x="132" y="240" width="16" height="16" rx="4" fill="#CBD5E1"/>
  <rect x="156" y="240" width="16" height="16" rx="4" fill="#0F172A"/>
  <rect x="180" y="240" width="16" height="16" rx="4" fill="#059669"/>
  <rect x="204" y="240" width="16" height="16" rx="4" fill="#CBD5E1"/>
  <rect x="228" y="240" width="16" height="16" rx="4" fill="#0F172A"/>
  <rect x="252" y="240" width="16" height="16" rx="4" fill="#059669"/>
  <rect x="144" y="264" width="16" height="16" rx="4" fill="#0F172A"/>
  <rect x="168" y="264" width="16" height="16" rx="4" fill="#059669"/>
  <rect x="192" y="264" width="16" height="16" rx="4" fill="#0F172A"/>
  <rect x="216" y="264" width="16" height="16" rx="4" fill="#CBD5E1"/>
  <rect x="240" y="264" width="16" height="16" rx="4" fill="#0F172A"/>
  <rect x="132" y="120" width="24" height="8" rx="4" fill="#059669" fill-opacity="0.65"/>
  <rect x="164" y="120" width="56" height="8" rx="4" fill="#CBD5E1"/>
  <rect x="228" y="120" width="40" height="8" rx="4" fill="#059669" fill-opacity="0.65"/>
</svg>
